<?xml version="1.0" encoding="utf-8"?>
<!-- Generator: Adobe Illustrator 19.0.0, SVG Export Plug-In . SVG Version: 6.00 Build 0)  -->
<svg version="1.1" id="图层_1" xmlns="http://www.w3.org/2000/svg" xmlns:xlink="http://www.w3.org/1999/xlink" x="0px" y="0px"
	 viewBox="-183 98.9 200 200" style="enable-background:new -183 98.9 200 200;" xml:space="preserve">
<style type="text/css">
	.st0{fill:#999999;}
	.st1{clip-path:url(#SVGID_5_);}
	.st2{clip-path:url(#SVGID_7_);fill:#999999;}
</style>
<g>
	<g>
		<g>
			<path id="SVGID_1_" class="st0" d="M-175,160.5c0,3,1.1,6.1,3.2,8.4l81,86.7c4.3,4.6,11.3,4.6,15.6,0l81-86.7
				c4.3-4.6,4.3-12.1,0-16.7c-4.3-4.6-11.3-4.6-15.6,0L-83,230.6l-73.1-78.4c-4.3-4.6-11.3-4.6-15.6,0
				C-173.9,154.5-175,157.5-175,160.5z"/>
		</g>
		<g>
			<defs>
				<path id="SVGID_2_" d="M-175,160.5c0,3,1.1,6.1,3.2,8.4l81,86.7c4.3,4.6,11.3,4.6,15.6,0l81-86.7c4.3-4.6,4.3-12.1,0-16.7
					c-4.3-4.6-11.3-4.6-15.6,0L-83,230.6l-73.1-78.4c-4.3-4.6-11.3-4.6-15.6,0C-173.9,154.5-175,157.5-175,160.5z"/>
			</defs>
			<clipPath id="SVGID_5_">
				<use xlink:href="#SVGID_2_"  style="overflow:visible;"/>
			</clipPath>
			<g class="st1">
				<g>
					<rect id="SVGID_3_" x="-7737.4" y="-5978.5" class="st0" width="12272.8" height="6900"/>
				</g>
				<g>
					<g>
						<rect id="SVGID_4_" x="-7737.4" y="-5978.5" class="st0" width="12272.8" height="6900"/>
					</g>
					<g>
						<defs>
							<rect id="SVGID_6_" x="-7737.4" y="-5978.5" width="12272.8" height="6900"/>
						</defs>
						<clipPath id="SVGID_7_">
							<use xlink:href="#SVGID_6_"  style="overflow:visible;"/>
						</clipPath>
						<rect x="-221" y="102.7" class="st2" width="276" height="202.4"/>
					</g>
				</g>
			</g>
		</g>
	</g>
</g>
</svg>
