<?xml version="1.0" encoding="utf-8"?>
<!-- Generator: Adobe Illustrator 19.0.0, SVG Export Plug-In . SVG Version: 6.00 Build 0)  -->
<svg version="1.1" id="图层_1" xmlns="http://www.w3.org/2000/svg" xmlns:xlink="http://www.w3.org/1999/xlink" x="0px" y="0px"
	 viewBox="-183 98.9 200 200" style="enable-background:new -183 98.9 200 200;" xml:space="preserve">
<style type="text/css">
	.st0{clip-path:url(#SVGID_2_);}
	.st1{fill:#999999;}
	.st2{clip-path:url(#SVGID_5_);fill:#999999;}
</style>
<g>
	<g>
		<defs>
			<path id="SVGID_1_" d="M-124.4,290.9c3,0,6.1-1.1,8.4-3.2l86.7-81c4.6-4.3,4.6-11.3,0-15.6l-86.7-81c-4.6-4.3-12.1-4.3-16.7,0
				c-4.6,4.3-4.6,11.3,0,15.6l78.4,73.2l-78.4,73.1c-4.6,4.3-4.6,11.3,0,15.6C-130.4,289.8-127.4,290.9-124.4,290.9z"/>
		</defs>
		<use xlink:href="#SVGID_1_"  style="overflow:visible;fill:#999999;"/>
		<clipPath id="SVGID_2_">
			<use xlink:href="#SVGID_1_"  style="overflow:visible;"/>
		</clipPath>
		<g class="st0">
			<g>
				<rect id="SVGID_3_" x="-6263.4" y="-4419.5" class="st1" width="6900" height="12272.8"/>
			</g>
			<g>
				<defs>
					<rect id="SVGID_4_" x="-6263.4" y="-4419.5" width="6900" height="12272.8"/>
				</defs>
				<use xlink:href="#SVGID_4_"  style="overflow:visible;fill:#999999;"/>
				<clipPath id="SVGID_5_">
					<use xlink:href="#SVGID_4_"  style="overflow:visible;"/>
				</clipPath>
				<rect x="-182.2" y="60.9" class="st2" width="202.4" height="276"/>
			</g>
		</g>
	</g>
</g>
</svg>
