<?xml version="1.0" encoding="utf-8"?>
<!-- Generator: Adobe Illustrator 19.0.0, SVG Export Plug-In . SVG Version: 6.00 Build 0)  -->
<svg version="1.1" id="图层_1" xmlns="http://www.w3.org/2000/svg" xmlns:xlink="http://www.w3.org/1999/xlink" x="0px" y="0px"
	 viewBox="-627 688.5 161.6 40.8" style="enable-background:new -627 688.5 161.6 40.8;" xml:space="preserve">
<style type="text/css">
	.st0{fill:#FF9972;}
	.st1{fill:#FEB69C;}
	.st2{fill:#FFFFFF;}
</style>
<path class="st0" d="M-478.6,729.3h-145.6c-2,0-3.2-1.6-2.7-3.6l8.4-33.6c0.5-2,2.5-3.6,4.5-3.6h145.6c2,0,3.2,1.6,2.7,3.6
	l-8.4,33.6C-474.6,727.7-476.7,729.3-478.6,729.3z"/>
<path class="st1" d="M-478.6,729.3h-24.6l10.2-40.7h24.6c2,0,3.2,1.6,2.7,3.6l-8.4,33.6C-474.6,727.7-476.7,729.3-478.6,729.3z"/>
<polygon id="XMLID_6_" class="st2" points="-475.2,711.2 -493.2,711.2 -492,707.2 -474,707.2 "/>
<polygon id="XMLID_5_" class="st2" points="-487.8,717.7 -483.3,700.2 -479.3,700 -483.8,717.7 "/>
<g>
	<path class="st2" d="M-598.1,708.5l-0.3-0.2c-0.5-0.4-1.9-1.4-3-2.1h3.6l0.8-2.9h-4c0-0.1,0-0.1,0.1-0.2l0.3-1h3.4l0.8-2.9h-6.3
		c0.2-0.3,0.4-0.7,0.6-1l0.3-0.5l-3.1-0.7l-0.1,0.2c-1.1,2-2.6,3.8-4.2,5l-0.3,0.2l0.3,0.2c0.3,0.2,0.7,0.4,1,0.7h-1.2l-0.8,2.9h4.1
		c-1.1,1.3-2.8,2.3-5.2,3.1l-0.4,0.1l0.3,0.3c0.5,0.5,1.1,1.4,1.3,2l0.1,0.2l0.2-0.1c0.6-0.2,1.1-0.5,1.6-0.7l-2.9,10.9h3.6l0.2-0.9
		h10.3l-0.2,0.8h3.7l3.1-11.5h-10.7L-598.1,708.5z M-595.1,714.5h-10.3l0.3-1h10.3L-595.1,714.5z M-595.8,717.2l-0.3,1h-10.3l0.3-1
		H-595.8z M-604.1,702.1l-0.2,0.8c0,0.1-0.1,0.2-0.1,0.4h-1.7c0.4-0.4,0.8-0.8,1.1-1.2H-604.1z M-601.5,710.6h-5.5
		c1.2-0.7,2.2-1.5,3.1-2.3C-603.1,709-602,710-601.5,710.6z"/>
	<path class="st2" d="M-595.5,699.1l-2.8,10.4h10.4l2.8-10.4H-595.5z M-590.6,706.3h-3.4l1-3.9h3.4L-590.6,706.3z"/>
	<path class="st2" d="M-570.8,708.5c0.5,0.6,1.4,0.9,3,0.9h3.6c2.5,0,3.7-1,4.9-4.4l0.1-0.3l-0.3-0.1c-0.8-0.2-1.8-0.6-2.3-1.1
		l-0.3-0.3l-0.1,0.4c-0.7,2.3-1,2.5-1.6,2.5h-2.8c-0.2,0-0.6,0-0.7-0.1c0,0,0-0.2,0.1-0.6l0.4-1.4c2.2-0.6,4.9-1.4,7.3-2.4l0.3-0.1
		l-1.7-2.7l-0.2,0.1c-1.4,0.7-3.3,1.5-4.8,2l1-3.6h-3.6l-2.2,8C-571.3,707-571.2,707.9-570.8,708.5z"/>
	<path class="st2" d="M-582.8,705.6v0.4l0.3-0.1c0.7-0.3,2-0.5,7.9-0.9c0,0.3,0.1,0.7,0,1v0.4l3.6-1.3v-0.2c0-2.1-1.1-5-1.4-5.8
		l-0.1-0.2l-3.3,1.1c0.4-0.5,0.8-1,1.2-1.4l0.2-0.3l-3.6-1l-0.1,0.2c-1.2,1.9-2.9,3.7-3.5,4.2s-1,0.9-1.4,1l-0.2,0.1v0.2
		C-582.9,703.5-582.8,705-582.8,705.6z M-575.6,700.3c0.2,0.6,0.4,1.2,0.5,1.8l-2.9,0.2c0.8-0.8,1.6-1.6,2.2-2.3L-575.6,700.3z"/>
	<path class="st2" d="M-583,706.6l-4.1,15.5h3.4l1.3-4.9h3.4l-0.4,1.4c-0.1,0.2-0.1,0.2-0.3,0.2c-0.3,0-1.4,0-2.3,0h-0.3l0.1,0.3
		c0.2,0.7,0.3,1.9,0.3,2.7v0.3h0.3c1.6,0,2.9,0,3.9-0.5c1.2-0.5,1.6-1.5,2-2.7l3.3-12.2H-583V706.6z M-578,713.3l-0.3,1h-3.4l0.3-1
		H-578z M-577.1,709.6l-0.2,0.9h-3.4l0.2-0.9H-577.1z"/>
	<path class="st2" d="M-564.8,715.6l-0.3-0.2l-0.1,0.4c-0.8,2.7-1.1,2.9-1.8,2.9h-2.9c-0.2,0-0.7,0-0.8-0.1c0,0,0-0.2,0.1-0.6
		l0.5-1.9c3.1-0.9,5.6-1.8,7.6-2.7l0.3-0.1l-1.7-2.7l-0.2,0.1c-1.3,0.7-3.1,1.5-5.1,2.2l0.9-3.4h-3.6l-2.2,8.4
		c-0.4,1.6-0.4,2.6,0.1,3.2c0.5,0.6,1.4,0.9,3,0.9h3.7c2.6,0,3.8-1.1,5.1-4.9l0.1-0.3l-0.3-0.1
		C-563.2,716.5-564.3,716.1-564.8,715.6z"/>
	<path class="st2" d="M-535.5,710.1l0.9-3.2h-3.9l0.5-1.8h4.2l0.9-3.3h-3.9l0.7-0.3v-0.2c-0.1-1.1-0.4-2.6-0.8-3.6l-0.1-0.2
		l-3.4,1.2l0.1,0.2c0.3,0.9,0.5,2,0.6,2.9h-2.8c0.8-1.2,1.5-2.2,2.1-3.2l0.2-0.3l-3.2-0.9l-0.1,0.2c-1.4,2.5-3.2,4.8-5,6.8l0.6-2.3
		h-2.6l1.3-4.8h-3.5l-1.3,4.8h-2.9l-0.9,3.3h2.9l-1.1,4.3c-1,0.3-2.1,0.5-3.3,0.7h-0.2l-0.1,3.5l2.6-0.7l-1.3,4.9
		c-0.1,0.2-0.1,0.3-0.3,0.3c-0.3,0-1.2,0-2.1,0h-0.3l0.1,0.3c0.2,0.9,0.2,2.1,0,2.9l-0.1,0.3h0.3c1.7,0,2.9-0.1,3.9-0.7
		c1-0.5,1.5-1.3,2-3l1.6-6.1c0.8-0.2,1.7-0.4,2.6-0.7h0.2l0.2-1.5l0.2,0.3l0.2-0.2c0.5-0.4,1-0.9,1.6-1.4l-3.6,13.4h3.5l0.4-1.6
		h10.8l0.9-3.3h-4.7l0.5-2h3.8l0.9-3.2h-3.8l0.5-1.8L-535.5,710.1L-535.5,710.1z M-552.2,707.6l0.2,0.2c0.2,0.2,0.4,0.4,0.6,0.7
		l-1,0.3L-552.2,707.6z M-552,707.4l-0.2,0.1l0.6-2.1h1.9C-550.5,706.1-551.3,706.8-552,707.4z M-544.1,715.2l-0.5,2h-2.7l0.5-2
		H-544.1z M-542.8,710.1l-0.5,1.8h-2.7l0.5-1.8H-542.8z M-541.4,705.1l-0.5,1.8h-2.7l0.5-1.8H-541.4z"/>
	<path class="st2" d="M-512.4,703.7l0.4-1.7h5.1l0.9-3.2h-5.1l0.4-1.5h-3.6l-0.4,1.5h-6.3l0.4-1.5h-3.6l-0.4,1.5h-5.2l-0.9,3.2h5.2
		l-0.4,1.7h2.1c-0.2,0.2-0.3,0.5-0.5,0.7h-6.9l-0.9,3.2h5c-2.2,2.2-4.7,4-7.3,5.2l-0.3,0.1l0.2,0.2c0.4,0.6,1.1,1.8,1.3,2.5l0.1,0.3
		l0.3-0.1c0.9-0.5,1.7-1,2.5-1.5l-2.1,7.7h3.5l3-11.2c1-0.9,2-2,3.1-3.3h14.3l0.9-3.2h-12.7c0.1-0.2,0.3-0.4,0.4-0.6
		c0.1-0.2,0.2-0.4,0.4-0.6l0.2-0.3l-2.6-0.7l0.1-0.2h6.3l-0.4,1.7h3.5V703.7z"/>
	<path class="st2" d="M-515.7,713.6c1.8-0.9,3.6-2.1,5.2-3.2l0.2-0.2l-1.7-1.8l-0.7,0.2h-9.8l-0.8,2.9h6.2c-0.5,0.3-1.1,0.6-1.7,0.9
		h-0.1l-0.3,1.2h-6.7l-0.8,3.1h6.7l-0.5,2c0,0.2-0.1,0.2-0.3,0.2c-1.1,0-2.1,0-2.8-0.1h-0.3l0.1,0.3c0.2,1,0.3,1.9,0.2,2.5v0.3h0.3
		c1.8,0,3.2,0,4.3-0.4c1.3-0.5,1.7-1.3,2.1-2.6l0.6-2.3h6l0.8-3.1L-515.7,713.6L-515.7,713.6z"/>
</g>
</svg>
