<?xml version="1.0" encoding="utf-8"?>
<!-- Generator: Adobe Illustrator 19.0.0, SVG Export Plug-In . SVG Version: 6.00 Build 0)  -->
<svg version="1.1" id="图层_1" xmlns="http://www.w3.org/2000/svg" xmlns:xlink="http://www.w3.org/1999/xlink" x="0px" y="0px"
	 viewBox="-216 401.1 161.6 40.8" style="enable-background:new -216 401.1 161.6 40.8;" xml:space="preserve">
<style type="text/css">
	.st0{fill:#FF9972;}
	.st1{fill:#FEB69C;}
	.st2{fill:#FFFFFF;}
</style>
<path class="st0" d="M-67.5,441.9h-145.6c-2,0-3.2-1.6-2.7-3.6l8.4-33.6c0.5-2,2.5-3.6,4.5-3.6h145.6c2,0,3.2,1.6,2.7,3.6l-8.4,33.6
	C-63.5,440.3-65.6,441.9-67.5,441.9z"/>
<path class="st1" d="M-67.5,441.9h-24.6l10.2-40.7h24.6c2,0,3.2,1.6,2.7,3.6l-8.4,33.6C-63.5,440.3-65.6,441.9-67.5,441.9z"/>
<polygon id="XMLID_6_" class="st2" points="-64.1,423.8 -82.1,423.8 -80.9,419.8 -62.9,419.8 "/>
<polygon id="XMLID_5_" class="st2" points="-76.7,430.3 -72.2,412.8 -68.2,412.6 -72.7,430.3 "/>
<g>
	<path class="st2" d="M-159.4,410.6l0.1-0.3l-3.4-0.5l-0.1,0.2c-1.3,3.5-2.5,6.2-3.9,8.2l0.2-0.8h-2.2l0.5-1.7h2.3l0.8-3.1h-2.3
		l0.7-2.6h-3.3l-0.1,0.3h-0.1l-0.6,2.3h-1.7l0.7-2.6h-3.3l-0.1,0.3h0l-0.6,2.3h-2.3l-0.1,0.3h-0.1l-0.7,2.6h0.1l-0.1,0.2h2.3
		l-0.5,1.7h-2.7l-0.1,0.2h0l-0.7,2.6h0l-0.1,0.3h12.3c-0.2,0.2-0.4,0.5-0.6,0.7h-0.4l-0.1-0.1l0,0.1h-9.9l-3.6,13.5h3.3l1.1-4h3.9
		l-0.2,0.7c-0.1,0.1-0.1,0.2-0.3,0.2l-0.1,0c-0.2,0.1-1.1,0.1-1.9,0l-0.3,0l0,0.3c0.1,0.4,0.2,1.6,0.1,2.5l0,0.3h0.3
		c1.5,0,2.6-0.1,3.6-0.5c0.8-0.4,1.2-0.9,1.5-1.5c0.2,0.6,0.6,1.4,0.6,1.9l0.1,0.3l0.3-0.2c2.2-1.1,4.1-2.5,5.8-4
		c0.6,1.5,1.6,2.8,2.9,3.9l0.2,0.1l0.2-0.2c0.8-0.9,2-2.1,2.9-2.7l0.3-0.2l-0.3-0.2c-1.5-0.9-2.6-2.3-3.2-4c1.9-2.4,3.5-5.5,5.1-9.5
		h1.8l0.9-3.4h-6.8C-160.5,413.4-160,412.2-159.4,410.6z M-160.6,417.9c-0.8,1.9-1.6,3.6-2.4,5.1c-0.1-1.8,0-3.5,0.1-5.1H-160.6z
		 M-166.2,422.9c0,1.5,0,2.9,0.3,4.3c-1.6,1.7-3.4,3-5.5,4l2.3-8.8c0.3,0.7,0.7,1.6,0.9,2.1l0.1,0.4l0.3-0.3
		C-167.3,424.1-166.7,423.5-166.2,422.9z M-171.7,415.7l-0.5,1.7h-1.8l0.5-1.7H-171.7z M-173.7,427.3l-0.2,0.6h-3.9l0.2-0.6H-173.7z
		 M-172.9,424l-0.2,0.6h-3.9l0.2-0.6H-172.9z M-169,416.9l0.4-1.4h0L-169,416.9z M-167.9,412.9L-167.9,412.9l0.6-2.4h0L-167.9,412.9
		z M-173,412.9L-173,412.9l0.6-2.4h0L-173,412.9z"/>
	<path class="st2" d="M-131,414.8h-3.1l1.4-5.1h-3.6l-1.4,5.1h-3.6l-0.9,3.4h2.9c-1.4,2.7-3.5,5.8-5.4,7.7l-0.1,0.1l0,0.1
		c0.1,0.3,0.2,0.6,0.2,1c0.2,0.7,0.4,1.5,0.4,2.1l0.1,0.5l0.4-0.4c1-1,2.1-2.5,3.1-4.1l-2.5,9.3h3.6l3.1-11.7
		c0.3,0.8,0.5,1.7,0.6,2.3l0.1,0.5l2.8-3.1l-0.1-0.2c-0.2-0.5-1.6-3.1-2.3-4l0-0.2h2.9l-0.8,2.8h5.1l-2.6,9.6
		c-0.1,0.3-0.1,0.2-0.8,0.2c-0.5,0-1.3,0.1-2,0l-0.3,0l0,0.3c0.1,0.8,0.2,2.2,0,3.1l-0.1,0.3h0.3c1.8,0,3.1-0.1,4.2-0.6
		c1.2-0.6,1.8-1.6,2.1-3.1l2.6-9.8h6l0.9-3.4h-14.5L-131,414.8z"/>
	<polygon class="st2" points="-117.2,411.4 -129.1,411.4 -130,414.8 -118.1,414.8 	"/>
	<path class="st2" d="M-121.3,422.8l-3.3,0.9l0,0.2c0.4,2.7,0.5,6.1,0.2,8.2l-0.1,0.4l3.6-1.2l0-0.2c0.2-2.2,0-5.6-0.5-8.2
		L-121.3,422.8z"/>
	<path class="st2" d="M-129.1,423.6l-3.1-0.7l-0.1,0.2c-1.3,2.7-3.2,5.5-5,7.2l-0.2,0.2l0.3,0.2c0.4,0.2,1,0.7,1.4,1.1
		c0.2,0.2,0.4,0.4,0.6,0.5l0.2,0.1l0.2-0.2c2.1-2.4,4.3-5.5,5.6-8.4L-129.1,423.6z"/>
</g>
</svg>
