<?xml version="1.0" encoding="utf-8"?>
<!-- Generator: Adobe Illustrator 22.0.1, SVG Export Plug-In . SVG Version: 6.00 Build 0)  -->
<svg version="1.1" id="图层_1" xmlns="http://www.w3.org/2000/svg" xmlns:xlink="http://www.w3.org/1999/xlink" x="0px" y="0px"
	 viewBox="0 0 32 32" style="enable-background:new 0 0 32 32;" xml:space="preserve">
<style type="text/css">
	.st0{fill:#F2444D;}
	.st1{fill:#2F323D;}
</style>
<g>
	<g>
		<path id="SVGID_1_" class="st0" d="M16,17.6c1.3,0,2.4-1.1,2.4-2.4c0-0.4,0.4-0.8,0.8-0.8s0.8,0.4,0.8,0.8c0,2.2-1.8,4-4,4
			s-4-1.8-4-4c0-0.4,0.4-0.8,0.8-0.8s0.8,0.4,0.8,0.8C13.6,16.5,14.7,17.6,16,17.6z"/>
	</g>
</g>
<path class="st1" d="M29.6,11.2c-0.3,0-0.6,0.1-0.9,0.2C28,5,22.6,0,16,0S4,5,3.3,11.3c-0.1,0-0.3-0.1-0.4-0.1c-0.2,0-0.3,0-0.5,0
	c-1.3,0-2.4,1.1-2.4,2.4v4C0,18.9,1.1,20,2.4,20l0,0l0,0c1.1,0,2-0.7,2.3-1.7v-0.1c0-0.1,0-0.1,0-0.2s0-0.2,0-0.4l0,0v-1.7l0,0v-2.3
	v-0.8c0-6.2,4.9-11.1,11.1-11.1S27,6.7,27,12.9v0.8v4c0,4.8-3,8.9-7.3,10.5c-0.3-1-1.2-1.7-2.3-1.7h-3.2c-1.3,0-2.4,1.1-2.4,2.4
	s1.1,2.4,2.4,2.4h3.2c1,0,1.8-0.6,2.2-1.4c4.6-1.4,8.1-5.3,8.9-10.1c0.3,0.1,0.7,0.2,1,0.2c1.3,0,2.4-1.1,2.4-2.4v-4
	C32,12.3,30.9,11.2,29.6,11.2z M1.6,17.6v-4c0-0.4,0.4-0.8,0.8-0.8s0.8,0.4,0.8,0.8v4c0,0.4-0.4,0.8-0.8,0.8S1.6,18,1.6,17.6z
	 M17.6,29.6h-3.2c-0.4,0-0.8-0.4-0.8-0.8S14,28,14.4,28h3.2c0.4,0,0.8,0.4,0.8,0.8S18,29.6,17.6,29.6z M30.4,17.6
	c0,0.4-0.4,0.8-0.8,0.8s-0.8-0.4-0.8-0.8v-4c0-0.4,0.4-0.8,0.8-0.8s0.8,0.4,0.8,0.8V17.6z"/>
</svg>
